<svg width="189" height="41" viewBox="0 0 189 41" fill="none" xmlns="http://www.w3.org/2000/svg">
    <path d="M3.876 24V0.199998H13.566C16.1047 0.199998 18.326 0.709999 20.23 1.73C22.1567 2.72733 23.6527 4.12133 24.718 5.912C25.7833 7.70267 26.316 9.76533 26.316 12.1C26.316 14.4347 25.7833 16.4973 24.718 18.288C23.6527 20.0787 22.1567 21.484 20.23 22.504C18.326 23.5013 16.1047 24 13.566 24H3.876ZM6.392 21.824H13.43C15.538 21.824 17.3627 21.416 18.904 20.6C20.468 19.7613 21.6807 18.6167 22.542 17.166C23.4033 15.6927 23.834 14.004 23.834 12.1C23.834 10.1733 23.4033 8.48467 22.542 7.034C21.6807 5.58333 20.468 4.45 18.904 3.634C17.3627 2.79533 15.538 2.376 13.43 2.376H6.392V21.824ZM38.9818 24.17C37.2592 24.17 35.7065 23.7847 34.3238 23.014C32.9638 22.2207 31.8872 21.144 31.0938 19.784C30.3005 18.4013 29.9038 16.826 29.9038 15.058C29.9038 13.2673 30.3005 11.692 31.0938 10.332C31.8872 8.972 32.9638 7.90667 34.3238 7.136C35.6838 6.36533 37.2365 5.98 38.9818 5.98C40.7498 5.98 42.3138 6.36533 43.6738 7.136C45.0565 7.90667 46.1332 8.972 46.9038 10.332C47.6972 11.692 48.0938 13.2673 48.0938 15.058C48.0938 16.826 47.6972 18.4013 46.9038 19.784C46.1332 21.144 45.0565 22.2207 43.6738 23.014C42.2912 23.7847 40.7272 24.17 38.9818 24.17ZM38.9818 22.028C40.2738 22.028 41.4185 21.7447 42.4158 21.178C43.4132 20.5887 44.1952 19.7727 44.7618 18.73C45.3512 17.6647 45.6458 16.4407 45.6458 15.058C45.6458 13.6527 45.3512 12.4287 44.7618 11.386C44.1952 10.3433 43.4132 9.53867 42.4158 8.972C41.4185 8.38267 40.2852 8.088 39.0158 8.088C37.7465 8.088 36.6132 8.38267 35.6158 8.972C34.6185 9.53867 33.8252 10.3433 33.2358 11.386C32.6465 12.4287 32.3518 13.6527 32.3518 15.058C32.3518 16.4407 32.6465 17.6647 33.2358 18.73C33.8252 19.7727 34.6185 20.5887 35.6158 21.178C36.6132 21.7447 37.7352 22.028 38.9818 22.028ZM60.6843 24.17C58.9163 24.17 57.3296 23.7847 55.9243 23.014C54.5416 22.2207 53.4536 21.144 52.6603 19.784C51.8669 18.4013 51.4703 16.826 51.4703 15.058C51.4703 13.2673 51.8669 11.692 52.6603 10.332C53.4536 8.972 54.5416 7.90667 55.9243 7.136C57.3296 6.36533 58.9163 5.98 60.6843 5.98C62.2029 5.98 63.5743 6.27467 64.7983 6.864C66.0223 7.45333 66.9856 8.33733 67.6883 9.516L65.8863 10.74C65.2743 9.83333 64.5149 9.16467 63.6083 8.734C62.7016 8.30333 61.7156 8.088 60.6503 8.088C59.3809 8.088 58.2363 8.38267 57.2163 8.972C56.1963 9.53867 55.3916 10.3433 54.8023 11.386C54.2129 12.4287 53.9183 13.6527 53.9183 15.058C53.9183 16.4633 54.2129 17.6873 54.8023 18.73C55.3916 19.7727 56.1963 20.5887 57.2163 21.178C58.2363 21.7447 59.3809 22.028 60.6503 22.028C61.7156 22.028 62.7016 21.8127 63.6083 21.382C64.5149 20.9513 65.2743 20.294 65.8863 19.41L67.6883 20.634C66.9856 21.79 66.0223 22.674 64.7983 23.286C63.5743 23.8753 62.2029 24.17 60.6843 24.17ZM74.6811 40L64.1411 16.2H66.8611L76.7211 38.606H75.2251L85.1531 16.2H87.7031L77.1631 40H74.6811ZM100.722 40V36.056L100.62 35.41V28.814C100.62 27.2953 100.189 26.128 99.3279 25.312C98.4893 24.496 97.2313 24.088 95.5539 24.088C94.3979 24.088 93.2986 24.2807 92.2559 24.666C91.2133 25.0513 90.3293 25.5613 89.6039 26.196L88.5159 24.394C89.4226 23.6233 90.5106 23.034 91.7799 22.626C93.0493 22.1953 94.3866 21.98 95.7919 21.98C98.1039 21.98 99.8833 22.558 101.13 23.714C102.399 24.8473 103.034 26.5813 103.034 28.916V40H100.722ZM94.5679 40.17C93.2306 40.17 92.0633 39.9547 91.0659 39.524C90.0913 39.0707 89.3433 38.4587 88.8219 37.688C88.3006 36.8947 88.0399 35.988 88.0399 34.968C88.0399 34.0387 88.2553 33.2 88.6859 32.452C89.1393 31.6813 89.8646 31.0693 90.8619 30.616C91.8819 30.14 93.2419 29.902 94.9419 29.902H101.096V31.704H95.0099C93.2873 31.704 92.0859 32.01 91.4059 32.622C90.7486 33.234 90.4199 33.9933 90.4199 34.9C90.4199 35.92 90.8166 36.736 91.6099 37.348C92.4033 37.96 93.5139 38.266 94.9419 38.266C96.3019 38.266 97.4693 37.96 98.4439 37.348C99.4413 36.7133 100.167 35.8067 100.62 34.628L101.164 36.294C100.711 37.4727 99.9173 38.4133 98.7839 39.116C97.6733 39.8187 96.2679 40.17 94.5679 40.17ZM109.841 40V14.772H112.255V40H109.841ZM119.221 40V22.15H121.635V40H119.221ZM120.445 18.206C119.947 18.206 119.527 18.036 119.187 17.696C118.847 17.356 118.677 16.948 118.677 16.472C118.677 15.996 118.847 15.5993 119.187 15.282C119.527 14.942 119.947 14.772 120.445 14.772C120.944 14.772 121.363 14.9307 121.703 15.248C122.043 15.5653 122.213 15.962 122.213 16.438C122.213 16.9367 122.043 17.356 121.703 17.696C121.386 18.036 120.967 18.206 120.445 18.206ZM135.708 40.17C134.008 40.17 132.478 39.7847 131.118 39.014C129.781 38.2433 128.727 37.178 127.956 35.818C127.186 34.4353 126.8 32.8487 126.8 31.058C126.8 29.2447 127.186 27.658 127.956 26.298C128.727 24.938 129.781 23.884 131.118 23.136C132.478 22.3653 134.008 21.98 135.708 21.98C137.272 21.98 138.666 22.3313 139.89 23.034C141.137 23.7367 142.123 24.768 142.848 26.128C143.596 27.4653 143.97 29.1087 143.97 31.058C143.97 32.9847 143.608 34.628 142.882 35.988C142.157 37.348 141.171 38.3907 139.924 39.116C138.7 39.8187 137.295 40.17 135.708 40.17ZM135.878 38.028C137.148 38.028 138.281 37.7447 139.278 37.178C140.298 36.5887 141.092 35.7727 141.658 34.73C142.248 33.6647 142.542 32.4407 142.542 31.058C142.542 29.6527 142.248 28.4287 141.658 27.386C141.092 26.3433 140.298 25.5387 139.278 24.972C138.281 24.3827 137.148 24.088 135.878 24.088C134.632 24.088 133.51 24.3827 132.512 24.972C131.515 25.5387 130.722 26.3433 130.132 27.386C129.543 28.4287 129.248 29.6527 129.248 31.058C129.248 32.4407 129.543 33.6647 130.132 34.73C130.722 35.7727 131.515 36.5887 132.512 37.178C133.51 37.7447 134.632 38.028 135.878 38.028ZM142.61 40V34.628L142.848 31.024L142.508 27.42V14.772H144.922V40H142.61ZM159.477 40.17C157.619 40.17 155.987 39.7847 154.581 39.014C153.176 38.2207 152.077 37.144 151.283 35.784C150.49 34.4013 150.093 32.826 150.093 31.058C150.093 29.29 150.467 27.726 151.215 26.366C151.986 25.006 153.029 23.9407 154.343 23.17C155.681 22.3767 157.177 21.98 158.831 21.98C160.509 21.98 161.993 22.3653 163.285 23.136C164.6 23.884 165.631 24.9493 166.379 26.332C167.127 27.692 167.501 29.2673 167.501 31.058C167.501 31.1713 167.49 31.296 167.467 31.432C167.467 31.5453 167.467 31.67 167.467 31.806H151.929V30.004H166.175L165.223 30.718C165.223 29.426 164.94 28.2813 164.373 27.284C163.829 26.264 163.081 25.4707 162.129 24.904C161.177 24.3373 160.078 24.054 158.831 24.054C157.607 24.054 156.508 24.3373 155.533 24.904C154.559 25.4707 153.799 26.264 153.255 27.284C152.711 28.304 152.439 29.4713 152.439 30.786V31.16C152.439 32.52 152.734 33.7213 153.323 34.764C153.935 35.784 154.774 36.5887 155.839 37.178C156.927 37.7447 158.163 38.028 159.545 38.028C160.633 38.028 161.642 37.8353 162.571 37.45C163.523 37.0647 164.339 36.4753 165.019 35.682L166.379 37.246C165.586 38.198 164.589 38.9233 163.387 39.422C162.209 39.9207 160.905 40.17 159.477 40.17Z" fill="white"/>
    <line x1="3.99573" y1="30" x2="70.0057" y2="30" stroke="white"/>
</svg>